# File created by Blade
# Date/Time:  Thu Jan 22 19:34:15 2015
# Frame Rate: 120.000 fps
#------------------------------------------------------
:FULLY-SPECIFIED
:DEGREES
981
root -13.736586 14.740472 -8.999528 24.725782 -30.908348 26.765567
RightUpLeg -128.501394 -23.331936 -5.962722
RightLeg 137.169083 -0.000000 -0.000000
RightFoot -45.698608 -8.765190 6.841767
RightToeBase -2.722039 -0.000000 0.000000
LeftUpLeg -10.542300 38.038422 25.682677
LeftLeg 3.835845 -0.000000 -0.000000
LeftFoot -6.488011 12.561212 -44.505809
LeftToeBase 19.173337 -0.000000 -0.000000
Spine 14.654176 7.344246 28.869871
RightShoulder -3.131805 -3.701496 -10.499796
RightArm 22.149930 39.397884 83.004703
RightForeArm -28.040297 -0.000000 40.236193
RightHand 29.082673 0.000000 -88.881511
RightHandThumb1 -24.326973 -0.000000 -32.862282
LeftShoulder -29.858752 -14.069782 63.844095
LeftArm 67.020124 -54.798724 -29.666976
LeftForeArm 21.097638 0.000000 11.643870
LeftHand -0.814664 0.000000 15.741741
LeftHandThumb1 -26.253704 0.000000 33.147579
Head 12.490782 37.279188 54.961307
982
root -13.733846 14.745199 -8.996639 24.722241 -30.933078 26.757658
RightUpLeg -128.496337 -23.333854 -5.959329
RightLeg 137.152420 -0.000000 -0.000000
RightFoot -45.661519 -8.723775 6.829286
RightToeBase -2.795575 -0.000000 0.000000
LeftUpLeg -10.504221 38.046036 25.685898
LeftLeg 3.814296 -0.000000 -0.000000
LeftFoot -6.497654 12.556647 -44.477352
LeftToeBase 19.138881 -0.000000 -0.000000
Spine 14.654876 7.335865 28.839769
RightShoulder -3.135785 -3.732531 -10.466504
RightArm 22.253876 39.299401 82.935644
RightForeArm -27.932635 -0.000000 40.052166
RightHand 29.089269 -0.000000 -89.043710
RightHandThumb1 -24.326973 -0.000000 -32.862282
LeftShoulder -29.867980 -14.075084 63.880924
LeftArm 66.937901 -54.756428 -29.611579
LeftForeArm 21.054972 0.000000 11.588701
LeftHand -0.751212 0.000000 15.790374
LeftHandThumb1 -26.253704 0.000000 33.147579
Head 12.505810 37.317234 55.035550
983
root -13.731082 14.749690 -8.995454 24.716801 -30.960179 26.751223
RightUpLeg -128.486627 -23.333233 -5.973246
RightLeg 137.134552 -0.000000 -0.000000
RightFoot -45.719824 -8.546742 6.935792
RightToeBase -2.424158 -0.000000 0.000000
LeftUpLeg -10.463591 38.046492 25.691910
LeftLeg 3.793460 -0.000000 -0.000000
LeftFoot -6.510722 12.537905 -44.435730
LeftToeBase 19.128741 -0.000000 -0.000000
Spine 14.669659 7.325876 28.803375
RightShoulder -3.129001 -3.764815 -10.430492
RightArm 22.350189 39.197065 82.860210
RightForeArm -27.798049 0.000000 39.883221
RightHand 29.128694 -0.000000 -89.184379
RightHandThumb1 -24.326973 -0.000000 -32.862282
LeftShoulder -29.873184 -14.087563 63.949842
LeftArm 66.847433 -54.736861 -29.618967
LeftForeArm 21.039672 -0.000000 11.617348
LeftHand -0.990945 -0.000000 15.891397
LeftHandThumb1 -26.253704 0.000000 33.147579
Head 12.485356 37.370622 55.087918
984
root -13.727480 14.755606 -8.990441 24.715618 -31.000140 26.748097
RightUpLeg -128.482543 -23.332364 -5.983599
RightLeg 137.113679 -0.000000 -0.000000
RightFoot -45.588823 -8.631384 6.793407
RightToeBase -2.884375 -0.000000 0.000000
LeftUpLeg -10.419957 38.090858 25.676510
LeftLeg 3.750726 -0.000000 -0.000000
LeftFoot -6.484352 12.561000 -44.316134
LeftToeBase 18.880736 -0.000000 -0.000000
Spine 14.662415 7.331614 28.772303
RightShoulder -3.109024 -3.750516 -10.408843
RightArm 22.387280 39.132224 82.760457
RightForeArm -27.770612 -0.000000 39.689643
RightHand 29.044208 -0.000000 -89.375667
RightHandThumb1 -24.326973 -0.000000 -32.862282
LeftShoulder -29.852729 -14.102316 63.970235
LeftArm 66.816630 -54.726234 -29.622127
LeftForeArm 21.088947 -0.000000 11.574387
LeftHand -1.152485 -0.000000 15.907779
LeftHandThumb1 -26.253704 0.000000 33.147579
Head 12.511723 37.342910 55.135810
985
root -13.725004 14.759236 -8.986564 24.712119 -31.029615 26.737253
RightUpLeg -128.471155 -23.329245 -5.991902
RightLeg 137.102391 -0.000000 -0.000000
RightFoot -45.551195 -8.603648 6.758413
RightToeBase -2.904357 -0.000000 0.000000
LeftUpLeg -10.376411 38.106022 25.685018
LeftLeg 3.733875 -0.000000 -0.000000
LeftFoot -6.494424 12.543609 -44.284978
LeftToeBase 18.863859 -0.000000 -0.000000
Spine 14.651155 7.334789 28.742758
RightShoulder -3.080471 -3.765131 -10.371492
RightArm 22.440901 39.089200 82.673318
RightForeArm -27.715000 -0.000000 39.520198
RightHand 29.024494 -0.000000 -89.553923
RightHandThumb1 -24.326973 -0.000000 -32.862282
LeftShoulder -29.826743 -14.100824 63.989805
LeftArm 66.802668 -54.700053 -29.625688
LeftForeArm 20.862007 -0.000000 11.489648
LeftHand -1.199978 0.000000 16.171268
LeftHandThumb1 -26.253704 0.000000 33.147579
Head 12.508379 37.340811 55.213353
986
root -13.720450 14.761318 -8.985164 24.697581 -31.102509 26.778651
RightUpLeg -128.505099 -23.300280 -6.063684
RightLeg 137.089279 -0.000000 -0.000000
RightFoot -45.517369 -8.552061 6.736319
RightToeBase -2.795349 -0.000000 0.000000
LeftUpLeg -10.342178 38.134547 25.631932
LeftLeg 3.725760 -0.000000 -0.000000
LeftFoot -6.509283 12.547356 -44.256788
LeftToeBase 18.863656 -0.000000 -0.000000
Spine 14.643433 7.377901 28.616210
RightShoulder -3.067947 -3.778954 -10.294753
RightArm 22.518204 39.061435 82.623873
RightForeArm -27.672081 0.000000 39.355670
RightHand 29.039149 -0.000000 -89.625891
RightHandThumb1 -24.326973 -0.000000 -32.862282
LeftShoulder -29.796358 -14.137574 64.077019
LeftArm 66.688394 -54.670922 -29.570889
LeftForeArm 20.803523 -0.000000 11.486169
LeftHand -1.313533 -0.000000 16.074582
LeftHandThumb1 -26.253704 0.000000 33.147579
Head 12.482842 37.319525 55.337153
